# xmcd CD database file
#
# Track frame offsets:
#	150
#	12300
#	24590
#	36983
#	47170
#	56995
#	67128
#	78683
#	88285
#	100340
#	113940
#	126003
#	136643
#	148725
#	162598
#	174965
#	192201
#	209409
#	219950
#	233769
#	245538
#	257858
#	273694
#	281525
#	300784
#	309613
#	325883
#	338552
#
# Disc length: 4672 seconds
#
# Revision: 0
# Processed by: cddbd v1.5.1PL0 Copyright (c) Steve Scherf et al.
# Submitted via: CDex 1.51
#
DISCID=a4123e1c
DTITLE=Loretta Lynn - Greatest Hits (1-15) Van Lear Rose (16-28)
DYEAR=1900
DGENRE=Country
TTITLE0=01-Success
TTITLE1=02-Mr. And Mrs. Used To Be
TTITLE2=03-Blue Kentucky Girl
TTITLE3=04-You Ain't Woman Enough
TTITLE4=05-Don't Come Home A Drinkin' (With Lovin' On Your Mind)
TTITLE5=06-Fist City
TTITLE6=07-I'm A Honky Tonk Girl
TTITLE7=08-Your Squaw Is On The Warpath
TTITLE8=09-Wings Upon Your Horns
TTITLE9=10-Coal Miner's Daughter
TTITLE10=11-AfterThe Fire Is Gone
TTITLE11=12-You're Looking At Country
TTITLE12=13-One's On The Way
TTITLE13=14-When The Tingle Becomes A Chill
TTITLE14=15-Out Of My Head And Back In My Bed
TTITLE15=Loretta Lynn - Van Lear Rose
TTITLE16=Loretta Lynn - Portland Oregon Duet With Jack
TTITLE17=Loretta Lynn - Trouble on the Line
TTITLE18=Loretta Lynn - Family Tree
TTITLE19=Loretta Lynn - Have Mercy
TTITLE20=Loretta Lynn - High on A Mountain Top
TTITLE21=Loretta Lynn - Little Red Shoes
TTITLE22=Loretta Lynn - God Makes No Mistakes
TTITLE23=Loretta Lynn - Women's Prison
TTITLE24=Loretta Lynn - This Old House
TTITLE25=Loretta Lynn - Mrs. Leroy Brown
TTITLE26=Loretta Lynn - Miss Being Mrs
TTITLE27=Loretta Lynn - Story of my Life
EXTD=
EXTT0=
EXTT1=
EXTT2=
EXTT3=
EXTT4=
EXTT5=
EXTT6=
EXTT7=
EXTT8=
EXTT9=
EXTT10=
EXTT11=
EXTT12=
EXTT13=
EXTT14=
EXTT15=
EXTT16=
EXTT17=
EXTT18=
EXTT19=
EXTT20=
EXTT21=
EXTT22=
EXTT23=
EXTT24=
EXTT25=
EXTT26=
EXTT27=
PLAYORDER=
